<mxfile host="app.diagrams.net" modified="2022-03-28T09:14:52.078Z" agent="5.0 (Macintosh; Intel Mac OS X 10_15_7) AppleWebKit/537.36 (KHTML, like Gecko) Chrome/99.0.4844.74 Safari/537.36" etag="mrydm471xulq02eCOy8W" version="17.2.4" type="github">
  <diagram id="R2lEEEUBdFMjLlhIrx00" name="Page-1">
    <mxGraphModel dx="1868" dy="1791" grid="1" gridSize="10" guides="1" tooltips="1" connect="1" arrows="1" fold="1" page="1" pageScale="1" pageWidth="850" pageHeight="1100" math="0" shadow="0" extFonts="Permanent Marker^https://fonts.googleapis.com/css?family=Permanent+Marker">
      <root>
        <mxCell id="0" />
        <mxCell id="1" parent="0" />
        <mxCell id="loPE1wYKaGuPQugVza1v-2" value="&lt;font style=&quot;font-size: 22px&quot; face=&quot;Times New Roman&quot;&gt;Customers&lt;/font&gt;" style="rounded=0;whiteSpace=wrap;html=1;strokeWidth=3;fontSize=25;" vertex="1" parent="1">
          <mxGeometry x="100" y="70" width="130" height="60" as="geometry" />
        </mxCell>
        <mxCell id="loPE1wYKaGuPQugVza1v-3" value="Register" style="rhombus;whiteSpace=wrap;html=1;fontFamily=Times New Roman;fontSize=22;strokeWidth=3;" vertex="1" parent="1">
          <mxGeometry x="-120" y="60" width="150" height="80" as="geometry" />
        </mxCell>
        <mxCell id="loPE1wYKaGuPQugVza1v-5" value="" style="edgeStyle=entityRelationEdgeStyle;fontSize=12;html=1;endArrow=ERoneToMany;rounded=0;fontFamily=Times New Roman;exitX=1;exitY=0.5;exitDx=0;exitDy=0;strokeWidth=2;" edge="1" parent="1" source="loPE1wYKaGuPQugVza1v-3" target="loPE1wYKaGuPQugVza1v-2">
          <mxGeometry width="100" height="100" relative="1" as="geometry">
            <mxPoint x="20" y="200" as="sourcePoint" />
            <mxPoint x="100" y="100" as="targetPoint" />
          </mxGeometry>
        </mxCell>
        <mxCell id="loPE1wYKaGuPQugVza1v-7" value="" style="edgeStyle=entityRelationEdgeStyle;fontSize=12;html=1;endArrow=ERmandOne;rounded=0;fontFamily=Times New Roman;exitX=0;exitY=0.5;exitDx=0;exitDy=0;strokeWidth=2;" edge="1" parent="1" source="loPE1wYKaGuPQugVza1v-3" target="loPE1wYKaGuPQugVza1v-8">
          <mxGeometry width="100" height="100" relative="1" as="geometry">
            <mxPoint x="-60" y="190" as="sourcePoint" />
            <mxPoint x="40" y="90" as="targetPoint" />
          </mxGeometry>
        </mxCell>
        <mxCell id="loPE1wYKaGuPQugVza1v-8" value="Bank" style="rounded=0;whiteSpace=wrap;html=1;fontFamily=Times New Roman;fontSize=22;strokeWidth=1;" vertex="1" parent="1">
          <mxGeometry x="-350" y="70" width="120" height="60" as="geometry" />
        </mxCell>
        <mxCell id="loPE1wYKaGuPQugVza1v-9" value="&lt;font style=&quot;font-size: 16px&quot;&gt;Name&lt;/font&gt;" style="ellipse;whiteSpace=wrap;html=1;fontFamily=Times New Roman;fontSize=22;strokeWidth=1;fontStyle=4" vertex="1" parent="1">
          <mxGeometry x="-370" width="70" height="40" as="geometry" />
        </mxCell>
        <mxCell id="loPE1wYKaGuPQugVza1v-10" value="" style="endArrow=none;html=1;rounded=0;fontFamily=Times New Roman;fontSize=16;" edge="1" parent="1" source="loPE1wYKaGuPQugVza1v-9" target="loPE1wYKaGuPQugVza1v-8">
          <mxGeometry relative="1" as="geometry">
            <mxPoint x="-350" y="60" as="sourcePoint" />
            <mxPoint x="-190" y="60" as="targetPoint" />
          </mxGeometry>
        </mxCell>
        <mxCell id="loPE1wYKaGuPQugVza1v-11" value="&lt;span style=&quot;font-size: 16px&quot;&gt;Address&lt;/span&gt;" style="ellipse;whiteSpace=wrap;html=1;fontFamily=Times New Roman;fontSize=22;strokeWidth=1;fontStyle=0" vertex="1" parent="1">
          <mxGeometry x="70" y="-10" width="70" height="40" as="geometry" />
        </mxCell>
        <mxCell id="loPE1wYKaGuPQugVza1v-13" value="&lt;span style=&quot;font-size: 16px&quot;&gt;Customer_name&lt;/span&gt;" style="ellipse;whiteSpace=wrap;html=1;fontFamily=Times New Roman;fontSize=22;strokeWidth=1;fontStyle=0" vertex="1" parent="1">
          <mxGeometry x="300" width="130" height="40" as="geometry" />
        </mxCell>
        <mxCell id="loPE1wYKaGuPQugVza1v-14" value="&lt;span style=&quot;font-size: 16px&quot;&gt;Phone&lt;/span&gt;" style="ellipse;whiteSpace=wrap;html=1;fontFamily=Times New Roman;fontSize=22;strokeWidth=1;fontStyle=0" vertex="1" parent="1">
          <mxGeometry x="110" y="-80" width="70" height="40" as="geometry" />
        </mxCell>
        <mxCell id="loPE1wYKaGuPQugVza1v-17" value="&lt;span style=&quot;border-bottom: 1px dotted&quot;&gt;Customer_id&lt;/span&gt;" style="ellipse;whiteSpace=wrap;html=1;align=center;fontFamily=Times New Roman;fontSize=16;strokeWidth=1;" vertex="1" parent="1">
          <mxGeometry x="220" y="-60" width="100" height="40" as="geometry" />
        </mxCell>
        <mxCell id="loPE1wYKaGuPQugVza1v-19" value="" style="endArrow=none;html=1;rounded=0;fontFamily=Times New Roman;fontSize=16;" edge="1" parent="1" source="loPE1wYKaGuPQugVza1v-2" target="loPE1wYKaGuPQugVza1v-13">
          <mxGeometry relative="1" as="geometry">
            <mxPoint x="-90" y="-30" as="sourcePoint" />
            <mxPoint x="70" y="-30" as="targetPoint" />
          </mxGeometry>
        </mxCell>
        <mxCell id="loPE1wYKaGuPQugVza1v-21" value="" style="endArrow=none;html=1;rounded=0;fontFamily=Times New Roman;fontSize=16;" edge="1" parent="1" source="loPE1wYKaGuPQugVza1v-2" target="loPE1wYKaGuPQugVza1v-14">
          <mxGeometry relative="1" as="geometry">
            <mxPoint x="-80" y="-20" as="sourcePoint" />
            <mxPoint x="210" y="30" as="targetPoint" />
          </mxGeometry>
        </mxCell>
        <mxCell id="loPE1wYKaGuPQugVza1v-22" value="" style="endArrow=none;html=1;rounded=0;fontFamily=Times New Roman;fontSize=16;" edge="1" parent="1" source="loPE1wYKaGuPQugVza1v-2" target="loPE1wYKaGuPQugVza1v-11">
          <mxGeometry relative="1" as="geometry">
            <mxPoint x="-70" y="-10" as="sourcePoint" />
            <mxPoint x="90" y="-10" as="targetPoint" />
          </mxGeometry>
        </mxCell>
        <mxCell id="loPE1wYKaGuPQugVza1v-23" value="" style="endArrow=none;html=1;rounded=0;fontFamily=Times New Roman;fontSize=16;" edge="1" parent="1" source="loPE1wYKaGuPQugVza1v-2" target="loPE1wYKaGuPQugVza1v-17">
          <mxGeometry relative="1" as="geometry">
            <mxPoint x="100" y="-70" as="sourcePoint" />
            <mxPoint x="260" y="-70" as="targetPoint" />
          </mxGeometry>
        </mxCell>
        <mxCell id="loPE1wYKaGuPQugVza1v-33" value="Accounts" style="whiteSpace=wrap;html=1;align=center;fontFamily=Times New Roman;fontSize=22;strokeWidth=1;" vertex="1" parent="1">
          <mxGeometry x="140" y="522.5" width="130" height="50" as="geometry" />
        </mxCell>
        <mxCell id="loPE1wYKaGuPQugVza1v-37" value="&lt;font style=&quot;font-size: 16px&quot;&gt;Numbers&lt;/font&gt;" style="ellipse;whiteSpace=wrap;html=1;align=center;fontStyle=4;fontFamily=Times New Roman;fontSize=22;strokeWidth=1;" vertex="1" parent="1">
          <mxGeometry x="310" y="600" width="100" height="30" as="geometry" />
        </mxCell>
        <mxCell id="loPE1wYKaGuPQugVza1v-47" value="Balances" style="ellipse;whiteSpace=wrap;html=1;align=center;fontFamily=Times New Roman;fontSize=16;strokeWidth=1;" vertex="1" parent="1">
          <mxGeometry x="80" y="660" width="100" height="40" as="geometry" />
        </mxCell>
        <mxCell id="loPE1wYKaGuPQugVza1v-48" value="Types" style="ellipse;whiteSpace=wrap;html=1;align=center;fontFamily=Times New Roman;fontSize=16;strokeWidth=1;" vertex="1" parent="1">
          <mxGeometry x="210" y="670" width="100" height="40" as="geometry" />
        </mxCell>
        <mxCell id="loPE1wYKaGuPQugVza1v-49" value="" style="endArrow=none;html=1;rounded=0;fontFamily=Times New Roman;fontSize=16;" edge="1" parent="1" source="loPE1wYKaGuPQugVza1v-37" target="loPE1wYKaGuPQugVza1v-33">
          <mxGeometry relative="1" as="geometry">
            <mxPoint x="319.2307692307693" y="-20" as="sourcePoint" />
            <mxPoint x="314.5958462108549" y="-40.084666419628775" as="targetPoint" />
          </mxGeometry>
        </mxCell>
        <mxCell id="loPE1wYKaGuPQugVza1v-61" value="" style="endArrow=none;html=1;rounded=0;fontFamily=Times New Roman;fontSize=16;" edge="1" parent="1" source="loPE1wYKaGuPQugVza1v-33" target="loPE1wYKaGuPQugVza1v-48">
          <mxGeometry relative="1" as="geometry">
            <mxPoint x="439.2307692307693" y="100" as="sourcePoint" />
            <mxPoint x="434.5958462108549" y="79.91533358037123" as="targetPoint" />
          </mxGeometry>
        </mxCell>
        <mxCell id="loPE1wYKaGuPQugVza1v-62" value="" style="endArrow=none;html=1;rounded=0;fontFamily=Times New Roman;fontSize=16;" edge="1" parent="1" source="loPE1wYKaGuPQugVza1v-33" target="loPE1wYKaGuPQugVza1v-47">
          <mxGeometry relative="1" as="geometry">
            <mxPoint x="449.2307692307693" y="110" as="sourcePoint" />
            <mxPoint x="444.5958462108549" y="89.91533358037123" as="targetPoint" />
          </mxGeometry>
        </mxCell>
        <mxCell id="loPE1wYKaGuPQugVza1v-63" value="Own" style="shape=rhombus;perimeter=rhombusPerimeter;whiteSpace=wrap;html=1;align=center;fontFamily=Times New Roman;fontSize=22;strokeWidth=1;horizontal=1;direction=south;" vertex="1" parent="1">
          <mxGeometry x="165" y="250" width="80" height="165" as="geometry" />
        </mxCell>
        <mxCell id="loPE1wYKaGuPQugVza1v-97" value="Make" style="shape=rhombus;perimeter=rhombusPerimeter;whiteSpace=wrap;html=1;align=center;fontFamily=Times New Roman;fontSize=22;strokeWidth=1;" vertex="1" parent="1">
          <mxGeometry x="-120" y="510" width="180" height="75" as="geometry" />
        </mxCell>
        <mxCell id="loPE1wYKaGuPQugVza1v-98" value="" style="edgeStyle=entityRelationEdgeStyle;fontSize=12;html=1;endArrow=ERone;endFill=1;rounded=0;fontFamily=Times New Roman;strokeWidth=2;" edge="1" parent="1" source="loPE1wYKaGuPQugVza1v-97" target="loPE1wYKaGuPQugVza1v-33">
          <mxGeometry width="100" height="100" relative="1" as="geometry">
            <mxPoint x="130" y="690" as="sourcePoint" />
            <mxPoint x="230" y="590" as="targetPoint" />
          </mxGeometry>
        </mxCell>
        <mxCell id="loPE1wYKaGuPQugVza1v-99" value="Transactions" style="whiteSpace=wrap;html=1;align=center;fontFamily=Times New Roman;fontSize=22;strokeWidth=1;" vertex="1" parent="1">
          <mxGeometry x="-380" y="522.5" width="130" height="50" as="geometry" />
        </mxCell>
        <mxCell id="loPE1wYKaGuPQugVza1v-100" value="Tid" style="ellipse;whiteSpace=wrap;html=1;align=center;fontStyle=4;fontFamily=Times New Roman;fontSize=22;strokeWidth=1;" vertex="1" parent="1">
          <mxGeometry x="-340" y="740" width="100" height="40" as="geometry" />
        </mxCell>
        <mxCell id="loPE1wYKaGuPQugVza1v-101" value="Description" style="ellipse;whiteSpace=wrap;html=1;align=center;fontFamily=Times New Roman;fontSize=16;strokeWidth=1;" vertex="1" parent="1">
          <mxGeometry x="-560" y="580" width="100" height="40" as="geometry" />
        </mxCell>
        <mxCell id="loPE1wYKaGuPQugVza1v-102" value="Code" style="ellipse;whiteSpace=wrap;html=1;align=center;fontFamily=Times New Roman;fontSize=16;strokeWidth=1;" vertex="1" parent="1">
          <mxGeometry x="-510" y="650" width="80" height="40" as="geometry" />
        </mxCell>
        <mxCell id="loPE1wYKaGuPQugVza1v-103" value="Amount" style="ellipse;whiteSpace=wrap;html=1;align=center;fontFamily=Times New Roman;fontSize=16;strokeWidth=1;" vertex="1" parent="1">
          <mxGeometry x="-270" y="690" width="100" height="40" as="geometry" />
        </mxCell>
        <mxCell id="loPE1wYKaGuPQugVza1v-104" value="Time" style="ellipse;whiteSpace=wrap;html=1;align=center;fontFamily=Times New Roman;fontSize=16;strokeWidth=1;" vertex="1" parent="1">
          <mxGeometry x="-410" y="690" width="100" height="40" as="geometry" />
        </mxCell>
        <mxCell id="loPE1wYKaGuPQugVza1v-105" value="" style="endArrow=none;html=1;rounded=0;fontFamily=Times New Roman;fontSize=16;" edge="1" parent="1" source="loPE1wYKaGuPQugVza1v-99" target="loPE1wYKaGuPQugVza1v-100">
          <mxGeometry relative="1" as="geometry">
            <mxPoint x="-485" y="609.5" as="sourcePoint" />
            <mxPoint x="-325" y="609.5" as="targetPoint" />
          </mxGeometry>
        </mxCell>
        <mxCell id="loPE1wYKaGuPQugVza1v-106" value="Attribute" style="ellipse;whiteSpace=wrap;html=1;align=center;fontFamily=Times New Roman;fontSize=16;strokeWidth=1;" vertex="1" parent="1">
          <mxGeometry x="-480" y="440" width="100" height="40" as="geometry" />
        </mxCell>
        <mxCell id="loPE1wYKaGuPQugVza1v-108" value="" style="endArrow=none;html=1;rounded=0;fontFamily=Times New Roman;fontSize=16;" edge="1" parent="1" source="loPE1wYKaGuPQugVza1v-99" target="loPE1wYKaGuPQugVza1v-101">
          <mxGeometry relative="1" as="geometry">
            <mxPoint x="-215.76923076923072" y="750" as="sourcePoint" />
            <mxPoint x="-220.40415378914508" y="729.9153335803712" as="targetPoint" />
          </mxGeometry>
        </mxCell>
        <mxCell id="loPE1wYKaGuPQugVza1v-109" value="" style="endArrow=none;html=1;rounded=0;fontFamily=Times New Roman;fontSize=16;" edge="1" parent="1" source="loPE1wYKaGuPQugVza1v-99" target="loPE1wYKaGuPQugVza1v-102">
          <mxGeometry relative="1" as="geometry">
            <mxPoint x="-205.76923076923072" y="760" as="sourcePoint" />
            <mxPoint x="-215" y="760" as="targetPoint" />
          </mxGeometry>
        </mxCell>
        <mxCell id="loPE1wYKaGuPQugVza1v-110" value="" style="endArrow=none;html=1;rounded=0;fontFamily=Times New Roman;fontSize=16;" edge="1" parent="1" source="loPE1wYKaGuPQugVza1v-104" target="loPE1wYKaGuPQugVza1v-99">
          <mxGeometry relative="1" as="geometry">
            <mxPoint x="-185.76923076923072" y="780" as="sourcePoint" />
            <mxPoint x="-190.40415378914508" y="759.9153335803712" as="targetPoint" />
          </mxGeometry>
        </mxCell>
        <mxCell id="loPE1wYKaGuPQugVza1v-111" value="" style="endArrow=none;html=1;rounded=0;fontFamily=Times New Roman;fontSize=16;" edge="1" parent="1" source="loPE1wYKaGuPQugVza1v-103" target="loPE1wYKaGuPQugVza1v-99">
          <mxGeometry relative="1" as="geometry">
            <mxPoint x="-135.76923076923072" y="830" as="sourcePoint" />
            <mxPoint x="-140.40415378914508" y="809.9153335803712" as="targetPoint" />
          </mxGeometry>
        </mxCell>
        <mxCell id="loPE1wYKaGuPQugVza1v-112" value="" style="endArrow=none;html=1;rounded=0;fontFamily=Times New Roman;fontSize=16;" edge="1" parent="1" source="loPE1wYKaGuPQugVza1v-99" target="loPE1wYKaGuPQugVza1v-106">
          <mxGeometry relative="1" as="geometry">
            <mxPoint x="-125.76923076923072" y="840" as="sourcePoint" />
            <mxPoint x="-130.40415378914508" y="819.9153335803712" as="targetPoint" />
          </mxGeometry>
        </mxCell>
        <mxCell id="loPE1wYKaGuPQugVza1v-87" value="Day" style="ellipse;whiteSpace=wrap;html=1;align=center;fontFamily=Times New Roman;fontSize=16;strokeWidth=1;" vertex="1" parent="1">
          <mxGeometry x="-200" y="595" width="100" height="40" as="geometry" />
        </mxCell>
        <mxCell id="loPE1wYKaGuPQugVza1v-113" value="" style="endArrow=none;html=1;rounded=0;fontFamily=Times New Roman;fontSize=16;" edge="1" parent="1" source="loPE1wYKaGuPQugVza1v-99" target="loPE1wYKaGuPQugVza1v-87">
          <mxGeometry relative="1" as="geometry">
            <mxPoint x="-241.48148148148152" y="720" as="sourcePoint" />
            <mxPoint x="-174.20441648456836" y="629.1759622541672" as="targetPoint" />
          </mxGeometry>
        </mxCell>
        <mxCell id="loPE1wYKaGuPQugVza1v-116" value="" style="edgeStyle=entityRelationEdgeStyle;fontSize=12;html=1;endArrow=ERone;endFill=1;rounded=0;fontFamily=Times New Roman;exitX=1;exitY=0.5;exitDx=0;exitDy=0;strokeWidth=2;" edge="1" parent="1" source="loPE1wYKaGuPQugVza1v-63" target="loPE1wYKaGuPQugVza1v-33">
          <mxGeometry width="100" height="100" relative="1" as="geometry">
            <mxPoint x="-70" y="540" as="sourcePoint" />
            <mxPoint x="30" y="440" as="targetPoint" />
          </mxGeometry>
        </mxCell>
        <mxCell id="loPE1wYKaGuPQugVza1v-118" value="" style="edgeStyle=entityRelationEdgeStyle;fontSize=12;html=1;endArrow=ERzeroToMany;endFill=1;rounded=0;fontFamily=Times New Roman;strokeWidth=2;" edge="1" parent="1" source="loPE1wYKaGuPQugVza1v-97" target="loPE1wYKaGuPQugVza1v-99">
          <mxGeometry width="100" height="100" relative="1" as="geometry">
            <mxPoint x="-130" y="540" as="sourcePoint" />
            <mxPoint x="-30" y="440" as="targetPoint" />
          </mxGeometry>
        </mxCell>
        <mxCell id="loPE1wYKaGuPQugVza1v-119" value="" style="edgeStyle=entityRelationEdgeStyle;fontSize=12;html=1;endArrow=ERzeroToOne;endFill=1;rounded=0;fontFamily=Times New Roman;strokeWidth=2;exitX=0;exitY=0.5;exitDx=0;exitDy=0;" edge="1" parent="1" source="loPE1wYKaGuPQugVza1v-63" target="loPE1wYKaGuPQugVza1v-2">
          <mxGeometry width="100" height="100" relative="1" as="geometry">
            <mxPoint x="-130" y="470" as="sourcePoint" />
            <mxPoint x="-30" y="370" as="targetPoint" />
          </mxGeometry>
        </mxCell>
        <mxCell id="loPE1wYKaGuPQugVza1v-120" value="&lt;font style=&quot;font-size: 16px&quot;&gt;Name&lt;/font&gt;" style="ellipse;whiteSpace=wrap;html=1;fontFamily=Times New Roman;fontSize=22;strokeWidth=1;fontStyle=4" vertex="1" parent="1">
          <mxGeometry x="160" y="-20" width="70" height="40" as="geometry" />
        </mxCell>
        <mxCell id="loPE1wYKaGuPQugVza1v-121" value="" style="endArrow=none;html=1;rounded=0;fontFamily=Times New Roman;fontSize=22;strokeWidth=2;" edge="1" parent="1" source="loPE1wYKaGuPQugVza1v-120" target="loPE1wYKaGuPQugVza1v-2">
          <mxGeometry relative="1" as="geometry">
            <mxPoint x="-160" y="150" as="sourcePoint" />
            <mxPoint y="150" as="targetPoint" />
          </mxGeometry>
        </mxCell>
      </root>
    </mxGraphModel>
  </diagram>
</mxfile>
